<svg width="118" height="38" viewBox="0 0 118 38" fill="none" xmlns="http://www.w3.org/2000/svg">
<path d="M36.2803 37.1558L6.69235 37.1558L10.6699 31.6216L12.5534 29.0008L13.0435 28.3202L15.9638 24.2568L20.045 18.5787L26.9318 18.5787L27.0795 18.5787L26.9318 18.7743L17.6981 31.6216L36.2803 31.6216L36.2803 37.1558Z" fill="#3854B5"/>
<path d="M32.5854 29.0008L25.598 29.0008L26.9663 27.0622L29.1388 24.2568L33.22 18.5787L27.081 18.5787L27.081 13.0226L34.3417 13.0226L34.3417 8.6713L34.3417 8.32082L34.3417 -2.49349e-07L40.0645 0L40.0645 18.5943L32.5854 29.0008Z" fill="#3854B5"/>
<path d="M3.78573 -1.28705e-06L33.3721 0L29.3945 5.53417L27.511 8.15497L27.0209 8.83559L24.1006 12.899L20.021 18.5787L13.1342 18.5787L12.9849 18.5787L13.1342 18.3831L22.3679 5.53417L3.78573 5.53417L3.78573 -1.28705e-06Z" fill="#3854B5"/>
<path d="M7.47884 8.15497L14.4678 8.15497L13.0995 10.0951L10.927 12.899L6.84576 18.5787L12.9848 18.5787L12.9848 24.1332L5.72414 24.1332L5.72414 28.4861L5.72414 28.835L5.72414 37.1558L-0.00022165 37.1558L-0.000220832 18.5615L7.47884 8.15497Z" fill="#3854B5"/>
<path d="M39.0979 34.4427L38.4899 34.4427L38.4899 37.5779L38.0442 37.5779L38.0442 34.4427L37.4248 34.4427L37.4248 33.5779L39.0979 33.5779L39.0979 34.4427ZM39.1077 37.5779L39.4125 33.5779L39.8058 33.5779L40.2613 35.9664L40.2712 35.9664L40.7267 33.5779L41.12 33.5779L41.4248 37.5779L40.9955 37.5779L40.8693 35.9123L40.8382 35.0677C40.8234 35.1623 40.807 35.2671 40.789 35.3853C40.7693 35.5036 40.7562 35.588 40.7497 35.6387L40.4187 37.5103L40.1089 37.5103L39.7845 35.6387C39.7779 35.588 39.7648 35.5036 39.7452 35.3853C39.7255 35.2671 39.7091 35.159 39.696 35.0677L39.6649 35.9123L39.5387 37.5779L39.1094 37.5779L39.1077 37.5779Z" fill="#3854B5"/>
<path d="M46.5576 20.4449H43.4248V5.82446H52.6288V8.85144H46.5576V11.9004H51.5568V14.9054H46.5576V20.4449Z" fill="#3854B5"/>
<path d="M57.0262 20.7241C55.8822 20.7241 54.9591 20.4026 54.2586 19.758C53.5581 19.1134 53.207 18.2617 53.207 17.2031C53.207 16.4738 53.3747 15.8433 53.7117 15.3132C54.047 14.783 54.5093 14.3753 55.0955 14.0898C55.6816 13.8044 56.332 13.6601 57.0482 13.6601C58.0496 13.6601 58.8723 13.8828 59.5149 14.3251V13.7244C59.5149 13.3386 59.3754 13.0014 59.0964 12.7159C58.8175 12.4305 58.3849 12.2862 57.7988 12.2862C57.4133 12.2862 56.9698 12.3332 56.4683 12.4258C55.9668 12.5183 55.4528 12.694 54.9231 12.9512L54 10.7178C54.6284 10.4026 55.3055 10.1532 56.0279 9.96655C56.7504 9.77991 57.4901 9.68738 58.2486 9.68738C59.7076 9.68738 60.8046 10.0701 61.5412 10.8354C62.2778 11.6008 62.6461 12.6061 62.6461 13.8514V20.4418H60.0932L59.8565 19.7329C59.1701 20.3916 58.2267 20.7209 57.0246 20.7209L57.0262 20.7241ZM57.9916 18.4907C58.4633 18.4907 58.8394 18.3731 59.1184 18.1362C59.3973 17.8994 59.5368 17.5889 59.5368 17.2031C59.5368 16.8172 59.3973 16.5051 59.1184 16.2699C58.8394 16.033 58.4649 15.9154 57.9916 15.9154C57.5183 15.9154 57.1469 16.033 56.8758 16.2699C56.6046 16.5067 56.4683 16.8172 56.4683 17.2031C56.4683 17.5889 56.6046 17.901 56.8758 18.1362C57.1469 18.3731 57.5199 18.4907 57.9916 18.4907Z" fill="#3854B5"/>
<path d="M71.1854 9.68895C71.886 9.68895 72.458 9.80657 72.9015 10.0434C73.345 10.2802 73.6804 10.6049 73.9092 11.0205C74.138 11.4361 74.2947 11.9051 74.3809 12.4273C74.4671 12.9496 74.5094 13.4907 74.5094 14.0475V20.4449H71.3766V14.2184C71.3766 13.6319 71.2701 13.2382 71.0554 13.0374C70.8407 12.8367 70.5539 12.7363 70.1966 12.7363C69.7954 12.7363 69.3926 12.8367 68.9851 13.0374C68.5777 13.2382 68.2016 13.4954 67.8583 13.8107V20.4449H64.7256V9.94616H67.0419L67.4274 11.1695C67.943 10.7398 68.5181 10.3853 69.1544 10.1061C69.7907 9.82696 70.4661 9.68738 71.1823 9.68738L71.1854 9.68895Z" fill="#3854B5"/>
<path d="M81.2466 20.6158C80.0744 20.6158 79.1576 20.3304 78.501 19.7564C77.8427 19.1839 77.5136 18.246 77.5136 16.9443V12.8226H75.8838V9.94614H77.4713L78.1154 7.41321H80.6464V9.94614H82.9846V12.8226H80.6464V16.2573C80.6464 16.7435 80.7608 17.0917 80.9896 17.2987C81.2184 17.5057 81.5193 17.6093 81.8907 17.6093C82.1054 17.6093 82.3092 17.592 82.5019 17.5559C82.6947 17.5199 82.8561 17.4806 82.9846 17.4383V20.379C82.7276 20.4512 82.4627 20.5076 82.1916 20.5515C81.9205 20.5939 81.6055 20.6158 81.2482 20.6158H81.2466Z" fill="#3854B5"/>
<path d="M89.5483 20.6378C88.4904 20.6378 87.5674 20.4167 86.7807 19.9728C85.9939 19.529 85.3827 18.9001 84.9471 18.0829C84.5098 17.2674 84.292 16.3091 84.292 15.2065C84.292 14.104 84.5098 13.1598 84.9471 12.3301C85.3827 11.5004 85.9939 10.8527 86.7807 10.3869C87.5674 9.92265 88.4889 9.68896 89.5483 9.68896C90.6077 9.68896 91.5511 9.92893 92.3378 10.4089C93.1245 10.8888 93.7326 11.5428 94.162 12.374C94.5914 13.2037 94.8061 14.1338 94.8061 15.1658C94.8061 15.3665 94.7983 15.5484 94.7842 15.7131C94.7701 15.8778 94.756 16.0111 94.7418 16.1099H87.1897C87.2618 16.7828 87.5188 17.3019 87.9623 17.6658C88.4058 18.0312 88.9919 18.2131 89.7207 18.2131C90.393 18.2131 90.9258 18.0767 91.3192 17.8053C91.7125 17.534 92.0448 17.1968 92.3174 16.7969L94.441 17.9779C93.9974 18.8232 93.358 19.4772 92.5212 19.943C91.6843 20.4088 90.6939 20.641 89.5498 20.641L89.5483 20.6378ZM89.5702 12.1152C88.9559 12.1152 88.4434 12.2721 88.036 12.5873C87.6285 12.9026 87.3605 13.3323 87.232 13.875H91.8661C91.7376 13.3449 91.4837 12.9198 91.1045 12.5967C90.7252 12.2752 90.2143 12.1137 89.5702 12.1137V12.1152Z" fill="#3854B5"/>
<path d="M101.112 20.7021C100.04 20.7021 99.1028 20.4653 98.3019 19.9932C97.5011 19.5211 96.8758 18.8702 96.4245 18.039C95.9747 17.2093 95.749 16.2573 95.749 15.183C95.749 14.1086 95.9747 13.1613 96.4245 12.3379C96.8742 11.5145 97.5011 10.8668 98.3019 10.3947C99.1028 9.92262 100.04 9.68579 101.112 9.68579C102.27 9.68579 103.282 9.97281 104.147 10.5453C105.013 11.1177 105.632 11.8909 106.003 12.8633L103.171 14.1306C102.971 13.6726 102.706 13.3229 102.378 13.0782C102.049 12.8351 101.634 12.7128 101.134 12.7128C100.49 12.7128 99.9569 12.9355 99.5353 13.3778C99.1137 13.8216 98.9022 14.4223 98.9022 15.1814C98.9022 15.9405 99.1137 16.5584 99.5353 16.996C99.9569 17.432 100.49 17.6516 101.134 17.6516C101.634 17.6516 102.049 17.5308 102.378 17.2862C102.707 17.0431 102.972 16.6996 103.171 16.2557L106.003 17.501C105.632 18.4609 105.009 19.2325 104.136 19.8191C103.264 20.4057 102.256 20.699 101.112 20.699V20.7021Z" fill="#3854B5"/>
<path d="M107.332 20.4449V5.82446H110.465V10.8276C110.937 10.4841 111.455 10.2081 112.02 10.0011C112.584 9.79404 113.175 9.69052 113.789 9.69052C114.489 9.69052 115.061 9.80815 115.505 10.045C115.949 10.2818 116.284 10.6065 116.513 11.0221C116.741 11.4377 116.898 11.9066 116.984 12.4289C117.071 12.9512 117.113 13.4923 117.113 14.0491V20.4465H113.98V14.22C113.98 13.6334 113.874 13.2398 113.659 13.039C113.444 12.8383 113.157 12.7379 112.8 12.7379C112.399 12.7379 111.996 12.8383 111.589 13.039C111.181 13.2398 110.805 13.497 110.462 13.8122V20.4465H107.329L107.332 20.4449Z" fill="#3854B5"/>
<path d="M52.3196 37.2549H43.4385V22.6344H46.5712V34.2279H52.3212V37.2549H52.3196Z" fill="#3854B5"/>
<path d="M57.0819 37.534C55.9379 37.534 55.0148 37.2125 54.3143 36.5679C53.6137 35.9233 53.2627 35.0717 53.2627 34.013C53.2627 33.2837 53.4304 32.6532 53.7673 32.1231C54.1027 31.593 54.565 31.1852 55.1511 30.8998C55.7373 30.6143 56.3876 30.47 57.1038 30.47C58.1052 30.47 58.928 30.6927 59.5705 31.135V30.5343C59.5705 30.1485 59.4311 29.8113 59.1521 29.5259C58.8732 29.2404 58.4406 29.0961 57.8545 29.0961C57.469 29.0961 57.0255 29.1432 56.524 29.2357C56.0225 29.3282 55.5084 29.5039 54.9787 29.7611L54.0557 27.5277C54.6841 27.2125 55.3611 26.9631 56.0836 26.7765C56.8061 26.5899 57.5458 26.4973 58.3043 26.4973C59.7633 26.4973 60.8603 26.88 61.5969 27.6454C62.3335 28.4107 62.7017 29.4161 62.7017 30.6614V37.2533H60.1488L59.9122 36.5444C59.2258 37.2031 58.2823 37.5324 57.0803 37.5324L57.0819 37.534ZM58.0473 35.3006C58.519 35.3006 58.8951 35.183 59.174 34.9462C59.453 34.7094 59.5925 34.3988 59.5925 34.013C59.5925 33.6272 59.453 33.3151 59.174 33.0782C58.8951 32.8414 58.5205 32.7238 58.0473 32.7238C57.574 32.7238 57.2025 32.8414 56.9314 33.0782C56.6603 33.3151 56.524 33.6256 56.524 34.013C56.524 34.4004 56.6603 34.7109 56.9314 34.9462C57.2025 35.183 57.5755 35.3006 58.0473 35.3006Z" fill="#3854B5"/>
<path d="M64.7832 37.2549V22.6344H67.916V27.2941C68.6447 26.7639 69.5317 26.5005 70.5754 26.5005C71.5189 26.5005 72.3557 26.7326 73.086 27.1984C73.8148 27.6642 74.3868 28.3119 74.8021 29.1416C75.2174 29.9713 75.4243 30.9233 75.4243 31.9976C75.4243 33.072 75.2205 34.024 74.8131 34.8537C74.4056 35.6833 73.8367 36.3358 73.108 36.8079C72.3793 37.2799 71.5424 37.5168 70.5974 37.5168C69.3107 37.5168 68.2592 37.0808 67.4443 36.2072L67.123 37.2596H64.7848L64.7832 37.2549ZM69.9956 34.5713C70.6538 34.5713 71.1898 34.3314 71.6051 33.8515C72.0204 33.3715 72.2272 32.7536 72.2272 31.9945C72.2272 31.2354 72.0204 30.6378 71.6051 30.1595C71.1898 29.6796 70.6538 29.4396 69.9956 29.4396C69.3374 29.4396 68.8375 29.6796 68.4081 30.1595C67.9787 30.6394 67.7639 31.2511 67.7639 31.9945C67.7639 32.7379 67.9787 33.3731 68.4081 33.8515C68.8375 34.3314 69.3656 34.5713 69.9956 34.5713Z" fill="#3854B5"/>
<path d="M80.7872 37.578C79.9425 37.578 79.1574 37.4133 78.4271 37.0839C77.6984 36.7546 77.0261 36.1899 76.4102 35.3885L78.1905 33.6711C78.6622 34.173 79.1245 34.5306 79.5743 34.7439C80.024 34.9588 80.5146 35.0654 81.0443 35.0654C81.3452 35.0654 81.5943 34.998 81.7949 34.8615C81.9955 34.7251 82.0958 34.5573 82.0958 34.3565C82.0958 34.1134 81.9564 33.9127 81.6774 33.7558C81.3984 33.599 80.8092 33.4045 79.9081 33.1755C78.7922 32.9042 77.9695 32.5074 77.4413 31.9835C76.9116 31.4613 76.6484 30.7633 76.6484 29.8898C76.6484 29.2608 76.8129 28.6837 77.142 28.1614C77.4711 27.6391 77.9397 27.2204 78.5478 26.9051C79.1558 26.5899 79.8893 26.433 80.7465 26.433C81.7479 26.433 82.5989 26.6228 83.2994 27.0024C83.9999 27.3819 84.5798 27.843 85.0374 28.3872L83.1067 30.0403C82.7917 29.7549 82.4124 29.5102 81.9705 29.311C81.527 29.1103 81.027 29.0099 80.4691 29.0099C80.1682 29.0099 79.9112 29.0679 79.6965 29.1808C79.4818 29.2953 79.3752 29.4679 79.3752 29.6968C79.3752 29.8976 79.5037 30.0733 79.7608 30.2223C80.0178 30.3712 80.5334 30.5406 81.306 30.7273C82.5926 31.0284 83.522 31.4472 84.0955 31.9835C84.6676 32.5199 84.9543 33.232 84.9543 34.1197C84.9543 34.8066 84.7726 35.4073 84.4074 35.9233C84.0423 36.4393 83.5486 36.844 82.9264 37.1357C82.3043 37.4274 81.5928 37.5764 80.7919 37.5764L80.7872 37.578Z" fill="#3854B5"/>
</svg>
